<svg width="1024" height="1024" viewBox="0 0 1024 1024" fill="none" xmlns="http://www.w3.org/2000/svg">
  <defs>
    <linearGradient id="shieldGradient" x1="214" y1="188" x2="808" y2="836" gradientUnits="userSpaceOnUse">
      <stop offset="0" stop-color="#6BC5FF" />
      <stop offset="0.48" stop-color="#1695E6" />
      <stop offset="1" stop-color="#73E0A9" />
    </linearGradient>
    <linearGradient id="coreGradient" x1="512" y1="290" x2="512" y2="760" gradientUnits="userSpaceOnUse">
      <stop offset="0" stop-color="#F5F7FB" />
      <stop offset="1" stop-color="#CFE8FF" />
    </linearGradient>
    <filter id="glow" x="150" y="126" width="724" height="772" filterUnits="userSpaceOnUse" color-interpolation-filters="sRGB">
      <feFlood flood-opacity="0" result="BackgroundImageFix" />
      <feColorMatrix in="SourceAlpha" type="matrix" values="0 0 0 0 0 0 0 0 0 0 0 0 0 0 0 0 0 0 127 0" result="hardAlpha" />
      <feOffset dy="26" />
      <feGaussianBlur stdDeviation="28" />
      <feComposite in2="hardAlpha" operator="out" />
      <feColorMatrix type="matrix" values="0 0 0 0 0.0509804 0 0 0 0 0.427451 0 0 0 0 0.709804 0 0 0 0.24 0" />
      <feBlend mode="normal" in2="BackgroundImageFix" result="effect1_dropShadow_1_1" />
      <feBlend mode="normal" in="SourceGraphic" in2="effect1_dropShadow_1_1" result="shape" />
    </filter>
  </defs>

  <g filter="url(#glow)">
    <path d="M512 182L722 251C753 261 775 289 775 322V486C775 614 714 733 611 808L540 860C523 873 501 873 484 860L413 808C310 733 249 614 249 486V322C249 289 271 261 302 251L512 182Z" fill="url(#shieldGradient)" />
    <path d="M512 223L695 283C714 289 727 307 727 327V480C727 593 673 699 582 767L522 812C516 817 508 817 502 812L442 767C351 699 297 593 297 480V327C297 307 310 289 329 283L512 223Z" fill="url(#shieldGradient)" fill-opacity="0.2" stroke="#F5F7FB" stroke-opacity="0.22" stroke-width="2" />

    <path d="M512 320C582 320 639 377 639 447C639 498 609 541 565 562V670C565 683 560 695 551 704L530 725C519 736 501 736 490 725L473 708C463 699 459 686 459 673V562C415 541 385 498 385 447C385 377 442 320 512 320ZM512 382C476 382 447 411 447 447C447 483 476 512 512 512C548 512 577 483 577 447C577 411 548 382 512 382Z" fill="url(#coreGradient)" />

    <path d="M425 284C449 260 480 245 512 245C544 245 575 260 599 284" stroke="#F5F7FB" stroke-width="30" stroke-linecap="round" stroke-linejoin="round" />
    <path d="M379 240C415 201 462 180 512 180C562 180 609 201 645 240" stroke="#F5F7FB" stroke-opacity="0.92" stroke-width="24" stroke-linecap="round" stroke-linejoin="round" />
  </g>
</svg>
